<svg width="351" height="32" viewBox="0 0 351 32" fill="none" xmlns="http://www.w3.org/2000/svg">
<path d="M16.0389 31.7241C13.7868 31.7241 11.7036 31.348 9.78936 30.596C7.90322 29.8149 6.25638 28.73 4.84882 27.3416C3.4694 25.9241 2.38559 24.2751 1.59735 22.3949C0.809121 20.5145 0.414999 18.446 0.414999 16.1897C0.414999 13.9332 0.809121 11.8649 1.59735 9.98454C2.38559 8.1042 3.48348 6.46975 4.89104 5.0812C6.29861 3.66371 7.94546 2.57891 9.83158 1.82677C11.7459 1.04571 13.829 0.655174 16.0811 0.655174C18.3614 0.655174 20.4586 1.06017 22.373 1.87015C24.3154 2.65123 25.9622 3.82282 27.3135 5.38495L24.5688 8.11867C23.4426 6.90367 22.1759 6.0069 20.7684 5.42834C19.3608 4.82085 17.8547 4.5171 16.2501 4.5171C14.5891 4.5171 13.0408 4.80637 11.6051 5.38495C10.1976 5.96351 8.97297 6.77349 7.93138 7.81493C6.88979 8.85634 6.0734 10.1002 5.48221 11.5467C4.9192 12.9641 4.63769 14.5118 4.63769 16.1897C4.63769 17.8676 4.9192 19.4296 5.48221 20.876C6.0734 22.2936 6.88979 23.523 7.93138 24.5644C8.97297 25.6057 10.1976 26.4157 11.6051 26.9943C13.0408 27.573 14.5891 27.8623 16.2501 27.8623C17.8547 27.8623 19.3608 27.573 20.7684 26.9943C22.1759 26.3869 23.4426 25.4612 24.5688 24.2173L27.3135 26.951C25.9622 28.5131 24.3154 29.6992 22.373 30.5092C20.4586 31.3191 18.3473 31.7241 16.0389 31.7241Z" fill="url(#paint0_linear_0_7)"/>
<path d="M52.3965 31.7241C50.1444 31.7241 48.0471 31.3336 46.1048 30.5525C44.1904 29.7715 42.5296 28.6867 41.1221 27.2981C39.7144 25.8806 38.6166 24.2318 37.8283 22.3514C37.0401 20.471 36.6459 18.4171 36.6459 16.1897C36.6459 13.9622 37.0401 11.9083 37.8283 10.0279C38.6166 8.1476 39.7144 6.51315 41.1221 5.12459C42.5296 3.7071 44.1904 2.60782 46.1048 1.82677C48.019 1.04571 50.1164 0.655174 52.3965 0.655174C54.6486 0.655174 56.7178 1.04571 58.6039 1.82677C60.5183 2.57891 62.179 3.66371 63.5868 5.0812C65.0225 6.46975 66.1203 8.1042 66.8803 9.98454C67.6686 11.8649 68.0628 13.9332 68.0628 16.1897C68.0628 18.446 67.6686 20.5145 66.8803 22.3949C66.1203 24.2751 65.0225 25.9241 63.5868 27.3416C62.179 28.73 60.5183 29.8149 58.6039 30.596C56.7178 31.348 54.6486 31.7241 52.3965 31.7241ZM52.3965 27.8623C54.0293 27.8623 55.5354 27.573 56.9148 26.9943C58.3225 26.4157 59.5329 25.6057 60.5464 24.5644C61.5879 23.494 62.3902 22.2501 62.9532 20.8326C63.5445 19.4152 63.84 17.8676 63.84 16.1897C63.84 14.5118 63.5445 12.9641 62.9532 11.5467C62.3902 10.1292 61.5879 8.89973 60.5464 7.85831C59.5329 6.78797 58.3225 5.96351 56.9148 5.38495C55.5354 4.80637 54.0293 4.5171 52.3965 4.5171C50.7357 4.5171 49.2014 4.80637 47.7939 5.38495C46.4143 5.96351 45.2039 6.78797 44.1622 7.85831C43.1208 8.89973 42.3044 10.1292 41.7132 11.5467C41.1501 12.9641 40.8687 14.5118 40.8687 16.1897C40.8687 17.8676 41.1501 19.4152 41.7132 20.8326C42.3044 22.2501 43.1208 23.494 44.1622 24.5644C45.2039 25.6057 46.4143 26.4157 47.7939 26.9943C49.2014 27.573 50.7357 27.8623 52.3965 27.8623Z" fill="url(#paint1_linear_0_7)"/>
<path d="M160.495 31.7241C158.749 31.7241 157.116 31.348 155.596 30.596C154.076 29.8437 152.838 28.7591 151.88 27.3416L154.33 24.3908C155.146 25.548 156.061 26.4448 157.074 27.0812C158.116 27.6886 159.256 27.9924 160.495 27.9924C163.873 27.9924 165.562 25.9385 165.562 21.8307V4.77746H154.878V1.0023H169.742V21.6137C169.742 24.9983 168.954 27.5295 167.378 29.2074C165.829 30.8853 163.535 31.7241 160.495 31.7241Z" fill="url(#paint2_linear_0_7)"/>
<path d="M196.924 31.7241C193.039 31.7241 189.983 30.5815 187.76 28.2961C185.536 26.0107 184.424 22.6695 184.424 18.2726V1.0023H188.648V18.0989C188.648 21.4834 189.364 23.9569 190.801 25.5189C192.265 27.0812 194.319 27.8623 196.965 27.8623C199.64 27.8623 201.696 27.0812 203.131 25.5189C204.595 23.9569 205.326 21.4834 205.326 18.0989V1.0023H209.423V18.2726C209.423 22.6695 208.311 26.0107 206.088 28.2961C203.891 30.5815 200.837 31.7241 196.924 31.7241Z" fill="url(#paint3_linear_0_7)"/>
<path d="M224.414 31.3771V1.0023H227.876L247.427 25.953H245.612V1.0023H249.834V31.3771H246.372L226.822 6.42636H228.637V31.3771H224.414Z" fill="url(#paint4_linear_0_7)"/>
<path d="M265.015 31.3771V1.0023H269.239V31.3771H265.015Z" fill="url(#paint5_linear_0_7)"/>
<path d="M297.765 31.7241C295.514 31.7241 293.417 31.3336 291.475 30.5525C289.56 29.7715 287.899 28.6867 286.491 27.2981C285.083 25.8806 283.986 24.2318 283.197 22.3514C282.41 20.471 282.015 18.4171 282.015 16.1897C282.015 13.9622 282.41 11.9083 283.197 10.0279C283.986 8.1476 285.083 6.51315 286.491 5.12459C287.899 3.7071 289.56 2.60782 291.475 1.82677C293.388 1.04571 295.486 0.655174 297.765 0.655174C300.018 0.655174 302.086 1.04571 303.973 1.82677C305.888 2.57891 307.548 3.66371 308.956 5.0812C310.391 6.46975 311.489 8.1042 312.25 9.98454C313.037 11.8649 313.433 13.9332 313.433 16.1897C313.433 18.446 313.037 20.5145 312.25 22.3949C311.489 24.2751 310.391 25.9241 308.956 27.3416C307.548 28.73 305.888 29.8149 303.973 30.596C302.086 31.348 300.018 31.7241 297.765 31.7241ZM297.765 27.8623C299.399 27.8623 300.904 27.573 302.283 26.9943C303.691 26.4157 304.902 25.6057 305.915 24.5644C306.956 23.494 307.76 22.2501 308.323 20.8326C308.913 19.4152 309.209 17.8676 309.209 16.1897C309.209 14.5118 308.913 12.9641 308.323 11.5467C307.76 10.1292 306.956 8.89973 305.915 7.85831C304.902 6.78797 303.691 5.96351 302.283 5.38495C300.904 4.80637 299.399 4.5171 297.765 4.5171C296.105 4.5171 294.57 4.80637 293.163 5.38495C291.783 5.96351 290.572 6.78797 289.531 7.85831C288.489 8.89973 287.673 10.1292 287.081 11.5467C286.52 12.9641 286.239 14.5118 286.239 16.1897C286.239 17.8676 286.52 19.4152 287.081 20.8326C287.673 22.2501 288.489 23.494 289.531 24.5644C290.572 25.6057 291.783 26.4157 293.163 26.9943C294.57 27.573 296.105 27.8623 297.765 27.8623Z" fill="url(#paint6_linear_0_7)"/>
<path fill-rule="evenodd" clip-rule="evenodd" d="M326.219 18.446V31.3771H330.443V22.1344H337.748C338.398 22.1344 339.024 22.1081 339.625 22.0553L345.982 31.3771H350.585L343.573 21.2089C343.849 21.1064 344.118 20.9955 344.378 20.876C346.208 20.0371 347.616 18.8365 348.599 17.2745C349.585 15.6834 350.078 13.7886 350.078 11.5901C350.078 9.39151 349.585 7.4967 348.599 5.90564C347.616 4.3146 346.208 3.09961 344.378 2.26069C342.547 1.42177 340.338 1.0023 337.748 1.0023H326.219V4.77746H330.443H337.621C340.324 4.77746 342.365 5.37047 343.744 6.55654C345.152 7.74261 345.856 9.42044 345.856 11.5901C345.856 13.7597 345.152 15.452 343.744 16.667C342.365 17.8529 340.324 18.446 337.621 18.446H330.443H326.219Z" fill="url(#paint7_linear_0_7)"/>
<path fill-rule="evenodd" clip-rule="evenodd" d="M142.931 14.1068H126.294H122.071V17.7952H126.294H142.931V14.1068ZM126.294 27.6018H122.071V31.3771H143.523V27.6018H126.294ZM126.294 4.77746H142.931V1.0023H122.071V4.77746H126.294Z" fill="url(#paint8_linear_0_7)"/>
<path fill-rule="evenodd" clip-rule="evenodd" d="M80.8509 16.1897V31.3771H93.3077C96.4607 31.3771 99.2335 30.7405 101.626 29.4678C104.047 28.1949 105.92 26.4157 107.243 24.1305C108.594 21.8451 109.27 19.1982 109.27 16.1897C109.27 13.1811 108.594 10.5342 107.243 8.24885C105.92 5.96351 104.047 4.18442 101.626 2.91158C99.2335 1.63872 96.4607 1.0023 93.3077 1.0023H80.8509V4.77746H85.0735H93.0545C95.5035 4.77746 97.615 5.25477 99.3884 6.20941C101.19 7.16403 102.584 8.49473 103.569 10.2015C104.554 11.9083 105.047 13.9043 105.047 16.1897C105.047 18.446 104.554 20.4421 103.569 22.1777C102.584 23.8845 101.19 25.2152 99.3884 26.1699C97.615 27.1245 95.5035 27.6018 93.0545 27.6018H85.0735V16.1897H80.8509Z" fill="url(#paint9_linear_0_7)"/>
<defs>
<linearGradient id="paint0_linear_0_7" x1="576.21" y1="17.1035" x2="-137.669" y2="22.407" gradientUnits="userSpaceOnUse">
<stop offset="0.361" stop-color="#6CC07D"/>
<stop offset="1" stop-color="#CEF2D5"/>
</linearGradient>
<linearGradient id="paint1_linear_0_7" x1="576.21" y1="17.1034" x2="-137.669" y2="22.407" gradientUnits="userSpaceOnUse">
<stop offset="0.361" stop-color="#6CC07D"/>
<stop offset="1" stop-color="#CEF2D5"/>
</linearGradient>
<linearGradient id="paint2_linear_0_7" x1="576.21" y1="17.1034" x2="-137.669" y2="22.407" gradientUnits="userSpaceOnUse">
<stop offset="0.361" stop-color="#6CC07D"/>
<stop offset="1" stop-color="#CEF2D5"/>
</linearGradient>
<linearGradient id="paint3_linear_0_7" x1="576.21" y1="17.1034" x2="-137.669" y2="22.407" gradientUnits="userSpaceOnUse">
<stop offset="0.361" stop-color="#6CC07D"/>
<stop offset="1" stop-color="#CEF2D5"/>
</linearGradient>
<linearGradient id="paint4_linear_0_7" x1="576.21" y1="17.1034" x2="-137.669" y2="22.407" gradientUnits="userSpaceOnUse">
<stop offset="0.361" stop-color="#6CC07D"/>
<stop offset="1" stop-color="#CEF2D5"/>
</linearGradient>
<linearGradient id="paint5_linear_0_7" x1="576.21" y1="17.1034" x2="-137.668" y2="22.4069" gradientUnits="userSpaceOnUse">
<stop offset="0.361" stop-color="#6CC07D"/>
<stop offset="1" stop-color="#CEF2D5"/>
</linearGradient>
<linearGradient id="paint6_linear_0_7" x1="576.21" y1="17.1035" x2="-137.669" y2="22.407" gradientUnits="userSpaceOnUse">
<stop offset="0.361" stop-color="#6CC07D"/>
<stop offset="1" stop-color="#CEF2D5"/>
</linearGradient>
<linearGradient id="paint7_linear_0_7" x1="576.21" y1="17.1035" x2="-137.669" y2="22.407" gradientUnits="userSpaceOnUse">
<stop offset="0.361" stop-color="#6CC07D"/>
<stop offset="1" stop-color="#CEF2D5"/>
</linearGradient>
<linearGradient id="paint8_linear_0_7" x1="576.21" y1="17.1034" x2="-137.669" y2="22.407" gradientUnits="userSpaceOnUse">
<stop offset="0.361" stop-color="#6CC07D"/>
<stop offset="1" stop-color="#CEF2D5"/>
</linearGradient>
<linearGradient id="paint9_linear_0_7" x1="576.21" y1="17.1034" x2="-137.669" y2="22.407" gradientUnits="userSpaceOnUse">
<stop offset="0.361" stop-color="#6CC07D"/>
<stop offset="1" stop-color="#CEF2D5"/>
</linearGradient>
</defs>
</svg>
