<svg width="361" height="43" viewBox="0 0 361 43" fill="none" xmlns="http://www.w3.org/2000/svg">
<g filter="url(#filter0_d_0_7)">
<path d="M21.0389 32.7241C18.7868 32.7241 16.7036 32.348 14.7894 31.596C12.9032 30.8149 11.2564 29.73 9.84882 28.3416C8.4694 26.9241 7.38559 25.2751 6.59735 23.3949C5.80912 21.5145 5.415 19.446 5.415 17.1897C5.415 14.9332 5.80912 12.8649 6.59735 10.9845C7.38559 9.1042 8.48348 7.46975 9.89104 6.0812C11.2986 4.66371 12.9455 3.57891 14.8316 2.82677C16.7459 2.04571 18.829 1.65517 21.0811 1.65517C23.3614 1.65517 25.4586 2.06017 27.373 2.87015C29.3154 3.65123 30.9622 4.82282 32.3135 6.38495L29.5688 9.11867C28.4426 7.90367 27.1759 7.0069 25.7684 6.42834C24.3608 5.82085 22.8547 5.5171 21.2501 5.5171C19.5891 5.5171 18.0408 5.80637 16.6051 6.38495C15.1976 6.96351 13.973 7.77349 12.9314 8.81493C11.8898 9.85634 11.0734 11.1002 10.4822 12.5467C9.9192 13.9641 9.63769 15.5118 9.63769 17.1897C9.63769 18.8676 9.9192 20.4296 10.4822 21.876C11.0734 23.2936 11.8898 24.523 12.9314 25.5644C13.973 26.6057 15.1976 27.4157 16.6051 27.9943C18.0408 28.573 19.5891 28.8623 21.2501 28.8623C22.8547 28.8623 24.3608 28.573 25.7684 27.9943C27.1759 27.3869 28.4426 26.4612 29.5688 25.2173L32.3135 27.951C30.9622 29.5131 29.3154 30.6992 27.373 31.5092C25.4586 32.3191 23.3473 32.7241 21.0389 32.7241Z" fill="url(#paint0_linear_0_7)"/>
<path d="M57.3965 32.7241C55.1444 32.7241 53.0471 32.3336 51.1048 31.5525C49.1904 30.7715 47.5296 29.6867 46.1221 28.2981C44.7144 26.8806 43.6166 25.2318 42.8283 23.3514C42.0401 21.471 41.6459 19.4171 41.6459 17.1897C41.6459 14.9622 42.0401 12.9083 42.8283 11.0279C43.6166 9.1476 44.7144 7.51315 46.1221 6.12459C47.5296 4.7071 49.1904 3.60782 51.1048 2.82677C53.019 2.04571 55.1164 1.65517 57.3965 1.65517C59.6486 1.65517 61.7178 2.04571 63.6039 2.82677C65.5183 3.57891 67.179 4.66371 68.5868 6.0812C70.0225 7.46975 71.1203 9.1042 71.8803 10.9845C72.6686 12.8649 73.0628 14.9332 73.0628 17.1897C73.0628 19.446 72.6686 21.5145 71.8803 23.3949C71.1203 25.2751 70.0225 26.9241 68.5868 28.3416C67.179 29.73 65.5183 30.8149 63.6039 31.596C61.7178 32.348 59.6486 32.7241 57.3965 32.7241ZM57.3965 28.8623C59.0293 28.8623 60.5354 28.573 61.9148 27.9943C63.3225 27.4157 64.5329 26.6057 65.5464 25.5644C66.5879 24.494 67.3902 23.2501 67.9532 21.8326C68.5445 20.4152 68.84 18.8676 68.84 17.1897C68.84 15.5118 68.5445 13.9641 67.9532 12.5467C67.3902 11.1292 66.5879 9.89973 65.5464 8.85831C64.5329 7.78797 63.3225 6.96351 61.9148 6.38495C60.5354 5.80637 59.0293 5.5171 57.3965 5.5171C55.7357 5.5171 54.2014 5.80637 52.7939 6.38495C51.4143 6.96351 50.2039 7.78797 49.1622 8.85831C48.1208 9.89973 47.3044 11.1292 46.7132 12.5467C46.1501 13.9641 45.8687 15.5118 45.8687 17.1897C45.8687 18.8676 46.1501 20.4152 46.7132 21.8326C47.3044 23.2501 48.1208 24.494 49.1622 25.5644C50.2039 26.6057 51.4143 27.4157 52.7939 27.9943C54.2014 28.573 55.7357 28.8623 57.3965 28.8623Z" fill="url(#paint1_linear_0_7)"/>
<path d="M165.495 32.7241C163.749 32.7241 162.116 32.348 160.596 31.596C159.076 30.8437 157.838 29.7591 156.88 28.3416L159.33 25.3908C160.146 26.548 161.061 27.4448 162.074 28.0812C163.116 28.6886 164.256 28.9924 165.495 28.9924C168.873 28.9924 170.562 26.9385 170.562 22.8307V5.77746H159.878V2.0023H174.742V22.6137C174.742 25.9983 173.954 28.5295 172.378 30.2074C170.829 31.8853 168.535 32.7241 165.495 32.7241Z" fill="url(#paint2_linear_0_7)"/>
<path d="M201.924 32.7241C198.039 32.7241 194.983 31.5815 192.76 29.2961C190.536 27.0107 189.424 23.6695 189.424 19.2726V2.0023H193.648V19.0989C193.648 22.4834 194.364 24.9569 195.801 26.5189C197.265 28.0812 199.319 28.8623 201.965 28.8623C204.64 28.8623 206.696 28.0812 208.131 26.5189C209.595 24.9569 210.326 22.4834 210.326 19.0989V2.0023H214.423V19.2726C214.423 23.6695 213.311 27.0107 211.088 29.2961C208.891 31.5815 205.837 32.7241 201.924 32.7241Z" fill="url(#paint3_linear_0_7)"/>
<path d="M229.414 32.3771V2.0023H232.876L252.427 26.953H250.612V2.0023H254.834V32.3771H251.372L231.822 7.42636H233.637V32.3771H229.414Z" fill="url(#paint4_linear_0_7)"/>
<path d="M270.015 32.3771V2.0023H274.239V32.3771H270.015Z" fill="url(#paint5_linear_0_7)"/>
<path d="M302.765 32.7241C300.514 32.7241 298.417 32.3336 296.475 31.5525C294.56 30.7715 292.899 29.6867 291.491 28.2981C290.083 26.8806 288.986 25.2318 288.197 23.3514C287.41 21.471 287.015 19.4171 287.015 17.1897C287.015 14.9622 287.41 12.9083 288.197 11.0279C288.986 9.1476 290.083 7.51315 291.491 6.12459C292.899 4.7071 294.56 3.60782 296.475 2.82677C298.388 2.04571 300.486 1.65517 302.765 1.65517C305.018 1.65517 307.086 2.04571 308.973 2.82677C310.888 3.57891 312.548 4.66371 313.956 6.0812C315.391 7.46975 316.489 9.1042 317.25 10.9845C318.037 12.8649 318.433 14.9332 318.433 17.1897C318.433 19.446 318.037 21.5145 317.25 23.3949C316.489 25.2751 315.391 26.9241 313.956 28.3416C312.548 29.73 310.888 30.8149 308.973 31.596C307.086 32.348 305.018 32.7241 302.765 32.7241ZM302.765 28.8623C304.399 28.8623 305.904 28.573 307.283 27.9943C308.691 27.4157 309.902 26.6057 310.915 25.5644C311.956 24.494 312.76 23.2501 313.323 21.8326C313.913 20.4152 314.209 18.8676 314.209 17.1897C314.209 15.5118 313.913 13.9641 313.323 12.5467C312.76 11.1292 311.956 9.89973 310.915 8.85831C309.902 7.78797 308.691 6.96351 307.283 6.38495C305.904 5.80637 304.399 5.5171 302.765 5.5171C301.105 5.5171 299.57 5.80637 298.163 6.38495C296.783 6.96351 295.572 7.78797 294.531 8.85831C293.489 9.89973 292.673 11.1292 292.081 12.5467C291.52 13.9641 291.239 15.5118 291.239 17.1897C291.239 18.8676 291.52 20.4152 292.081 21.8326C292.673 23.2501 293.489 24.494 294.531 25.5644C295.572 26.6057 296.783 27.4157 298.163 27.9943C299.57 28.573 301.105 28.8623 302.765 28.8623Z" fill="url(#paint6_linear_0_7)"/>
<path fill-rule="evenodd" clip-rule="evenodd" d="M331.219 19.446V32.3771H335.443V23.1344H342.748C343.398 23.1344 344.024 23.1081 344.625 23.0553L350.982 32.3771H355.585L348.573 22.2089C348.849 22.1064 349.118 21.9955 349.378 21.876C351.208 21.0371 352.616 19.8365 353.599 18.2745C354.585 16.6834 355.078 14.7886 355.078 12.5901C355.078 10.3915 354.585 8.4967 353.599 6.90564C352.616 5.3146 351.208 4.09961 349.378 3.26069C347.547 2.42177 345.338 2.0023 342.748 2.0023H331.219V5.77746H335.443H342.621C345.324 5.77746 347.365 6.37047 348.744 7.55654C350.152 8.74261 350.856 10.4204 350.856 12.5901C350.856 14.7597 350.152 16.452 348.744 17.667C347.365 18.8529 345.324 19.446 342.621 19.446H335.443H331.219Z" fill="url(#paint7_linear_0_7)"/>
<path fill-rule="evenodd" clip-rule="evenodd" d="M147.931 15.1068H131.294H127.071V18.7952H131.294H147.931V15.1068ZM131.294 28.6018H127.071V32.3771H148.523V28.6018H131.294ZM131.294 5.77746H147.931V2.0023H127.071V5.77746H131.294Z" fill="url(#paint8_linear_0_7)"/>
<path fill-rule="evenodd" clip-rule="evenodd" d="M85.8509 17.1897V32.3771H98.3077C101.461 32.3771 104.234 31.7405 106.626 30.4678C109.047 29.1949 110.92 27.4157 112.243 25.1305C113.594 22.8451 114.27 20.1982 114.27 17.1897C114.27 14.1811 113.594 11.5342 112.243 9.24885C110.92 6.96351 109.047 5.18442 106.626 3.91158C104.234 2.63872 101.461 2.0023 98.3077 2.0023H85.8509V5.77746H90.0735H98.0545C100.503 5.77746 102.615 6.25477 104.388 7.20941C106.19 8.16403 107.584 9.49473 108.569 11.2015C109.554 12.9083 110.047 14.9043 110.047 17.1897C110.047 19.446 109.554 21.4421 108.569 23.1777C107.584 24.8845 106.19 26.2152 104.388 27.1699C102.615 28.1245 100.503 28.6018 98.0545 28.6018H90.0735V17.1897H85.8509Z" fill="url(#paint9_linear_0_7)"/>
</g>
<defs>
<filter id="filter0_d_0_7" x="0.114999" y="0.355174" width="360.77" height="41.669" filterUnits="userSpaceOnUse" color-interpolation-filters="sRGB">
<feFlood flood-opacity="0" result="BackgroundImageFix"/>
<feColorMatrix in="SourceAlpha" type="matrix" values="0 0 0 0 0 0 0 0 0 0 0 0 0 0 0 0 0 0 127 0" result="hardAlpha"/>
<feOffset dy="4"/>
<feGaussianBlur stdDeviation="2.65"/>
<feComposite in2="hardAlpha" operator="out"/>
<feColorMatrix type="matrix" values="0 0 0 0 0 0 0 0 0 0 0 0 0 0 0 0 0 0 0.25 0"/>
<feBlend mode="normal" in2="BackgroundImageFix" result="effect1_dropShadow_0_7"/>
<feBlend mode="normal" in="SourceGraphic" in2="effect1_dropShadow_0_7" result="shape"/>
</filter>
<linearGradient id="paint0_linear_0_7" x1="581.21" y1="18.1035" x2="-132.669" y2="23.407" gradientUnits="userSpaceOnUse">
<stop offset="0.361" stop-color="#6CC07D"/>
<stop offset="1" stop-color="#CEF2D5"/>
</linearGradient>
<linearGradient id="paint1_linear_0_7" x1="581.21" y1="18.1034" x2="-132.669" y2="23.407" gradientUnits="userSpaceOnUse">
<stop offset="0.361" stop-color="#6CC07D"/>
<stop offset="1" stop-color="#CEF2D5"/>
</linearGradient>
<linearGradient id="paint2_linear_0_7" x1="581.21" y1="18.1034" x2="-132.669" y2="23.407" gradientUnits="userSpaceOnUse">
<stop offset="0.361" stop-color="#6CC07D"/>
<stop offset="1" stop-color="#CEF2D5"/>
</linearGradient>
<linearGradient id="paint3_linear_0_7" x1="581.21" y1="18.1034" x2="-132.669" y2="23.407" gradientUnits="userSpaceOnUse">
<stop offset="0.361" stop-color="#6CC07D"/>
<stop offset="1" stop-color="#CEF2D5"/>
</linearGradient>
<linearGradient id="paint4_linear_0_7" x1="581.21" y1="18.1034" x2="-132.669" y2="23.407" gradientUnits="userSpaceOnUse">
<stop offset="0.361" stop-color="#6CC07D"/>
<stop offset="1" stop-color="#CEF2D5"/>
</linearGradient>
<linearGradient id="paint5_linear_0_7" x1="581.21" y1="18.1034" x2="-132.668" y2="23.4069" gradientUnits="userSpaceOnUse">
<stop offset="0.361" stop-color="#6CC07D"/>
<stop offset="1" stop-color="#CEF2D5"/>
</linearGradient>
<linearGradient id="paint6_linear_0_7" x1="581.21" y1="18.1035" x2="-132.669" y2="23.407" gradientUnits="userSpaceOnUse">
<stop offset="0.361" stop-color="#6CC07D"/>
<stop offset="1" stop-color="#CEF2D5"/>
</linearGradient>
<linearGradient id="paint7_linear_0_7" x1="581.21" y1="18.1035" x2="-132.669" y2="23.407" gradientUnits="userSpaceOnUse">
<stop offset="0.361" stop-color="#6CC07D"/>
<stop offset="1" stop-color="#CEF2D5"/>
</linearGradient>
<linearGradient id="paint8_linear_0_7" x1="581.21" y1="18.1034" x2="-132.669" y2="23.407" gradientUnits="userSpaceOnUse">
<stop offset="0.361" stop-color="#6CC07D"/>
<stop offset="1" stop-color="#CEF2D5"/>
</linearGradient>
<linearGradient id="paint9_linear_0_7" x1="581.21" y1="18.1034" x2="-132.669" y2="23.407" gradientUnits="userSpaceOnUse">
<stop offset="0.361" stop-color="#6CC07D"/>
<stop offset="1" stop-color="#CEF2D5"/>
</linearGradient>
</defs>
</svg>
