<svg width="200" height="29" viewBox="0 0 200 29" fill="none" xmlns="http://www.w3.org/2000/svg">
<g filter="url(#filter0_d_1_3)">
<path d="M11.6559 19C10.4082 19 9.25409 18.7942 8.19355 18.3827C7.1486 17.9553 6.23622 17.3617 5.45641 16.602C4.69219 15.8264 4.09174 14.9241 3.65504 13.8953C3.21835 12.8664 3 11.7346 3 10.5C3 9.26536 3.21835 8.13361 3.65504 7.10475C4.09174 6.07588 4.69999 5.18156 5.4798 4.42179C6.25962 3.64618 7.172 3.05261 8.21694 2.64106C9.27749 2.21369 10.4316 2 11.6793 2C12.9426 2 14.1045 2.2216 15.1651 2.6648C16.2412 3.09218 17.1536 3.73324 17.9022 4.58799L16.3816 6.0838C15.7577 5.41899 15.0559 4.9283 14.2761 4.61173C13.4963 4.27933 12.6619 4.11313 11.7729 4.11313C10.8527 4.11313 9.99492 4.27141 9.19951 4.58799C8.4197 4.90456 7.74126 5.34776 7.1642 5.9176C6.58714 6.48743 6.13485 7.16806 5.80732 7.9595C5.4954 8.7351 5.33944 9.58194 5.33944 10.5C5.33944 11.4181 5.4954 12.2728 5.80732 13.0642C6.13485 13.8399 6.58714 14.5126 7.1642 15.0824C7.74126 15.6522 8.4197 16.0954 9.19951 16.412C9.99492 16.7286 10.8527 16.8869 11.7729 16.8869C12.6619 16.8869 13.4963 16.7286 14.2761 16.412C15.0559 16.0796 15.7577 15.5731 16.3816 14.8925L17.9022 16.3883C17.1536 17.243 16.2412 17.892 15.1651 18.3352C14.1045 18.7784 12.9348 19 11.6559 19Z" fill="url(#paint0_linear_1_3)"/>
<path d="M31.7986 19C30.5509 19 29.389 18.7863 28.3129 18.3589C27.2523 17.9316 26.3322 17.338 25.5524 16.5782C24.7725 15.8026 24.1643 14.9004 23.7276 13.8715C23.2909 12.8426 23.0725 11.7188 23.0725 10.5C23.0725 9.28119 23.2909 8.15736 23.7276 7.12849C24.1643 6.09963 24.7725 5.20531 25.5524 4.44553C26.3322 3.66992 27.2523 3.06843 28.3129 2.64106C29.3734 2.21369 30.5354 2 31.7986 2C33.0463 2 34.1927 2.21369 35.2376 2.64106C36.2982 3.05261 37.2183 3.64618 37.9982 4.42179C38.7936 5.18156 39.4018 6.07588 39.8229 7.10475C40.2596 8.13361 40.478 9.26536 40.478 10.5C40.478 11.7346 40.2596 12.8664 39.8229 13.8953C39.4018 14.9241 38.7936 15.8264 37.9982 16.602C37.2183 17.3617 36.2982 17.9553 35.2376 18.3827C34.1927 18.7942 33.0463 19 31.7986 19ZM31.7986 16.8869C32.7032 16.8869 33.5376 16.7286 34.3018 16.412C35.0817 16.0954 35.7523 15.6522 36.3138 15.0824C36.8908 14.4967 37.3353 13.8161 37.6472 13.0405C37.9748 12.2649 38.1385 11.4181 38.1385 10.5C38.1385 9.58194 37.9748 8.7351 37.6472 7.9595C37.3353 7.18389 36.8908 6.51117 36.3138 5.94134C35.7523 5.35568 35.0817 4.90456 34.3018 4.58799C33.5376 4.27141 32.7032 4.11313 31.7986 4.11313C30.8785 4.11313 30.0285 4.27141 29.2487 4.58799C28.4844 4.90456 27.8138 5.35568 27.2367 5.94134C26.6597 6.51117 26.2074 7.18389 25.8799 7.9595C25.5679 8.7351 25.412 9.58194 25.412 10.5C25.412 11.4181 25.5679 12.2649 25.8799 13.0405C26.2074 13.8161 26.6597 14.4967 27.2367 15.0824C27.8138 15.6522 28.4844 16.0954 29.2487 16.412C30.0285 16.7286 30.8785 16.8869 31.7986 16.8869Z" fill="url(#paint1_linear_1_3)"/>
<path d="M91.6868 19C90.7198 19 89.8152 18.7942 88.973 18.3827C88.1308 17.9711 87.4446 17.3776 86.9143 16.602L88.2712 14.9874C88.7235 15.6206 89.2304 16.1113 89.7918 16.4595C90.3689 16.7919 91.0005 16.9581 91.6868 16.9581C93.5583 16.9581 94.4941 15.8343 94.4941 13.5866V4.25559H88.5753V2.18994H96.8101V13.4679C96.8101 15.3198 96.3734 16.7048 95.5 17.6229C94.6423 18.541 93.3712 19 91.6868 19Z" fill="url(#paint2_linear_1_3)"/>
<path d="M111.869 19C109.717 19 108.024 18.3748 106.792 17.1243C105.56 15.8738 104.944 14.0456 104.944 11.6397V2.18994H107.284V11.5447C107.284 13.3966 107.681 14.75 108.477 15.6047C109.288 16.4595 110.426 16.8869 111.892 16.8869C113.374 16.8869 114.513 16.4595 115.308 15.6047C116.119 14.75 116.524 13.3966 116.524 11.5447V2.18994H118.794V11.6397C118.794 14.0456 118.178 15.8738 116.946 17.1243C115.729 18.3748 114.037 19 111.869 19Z" fill="url(#paint3_linear_1_3)"/>
<path d="M127.099 18.8101V2.18994H129.017L139.849 15.8422H138.843V2.18994H141.182V18.8101H139.264L128.433 5.15782H129.439V18.8101H127.099Z" fill="url(#paint4_linear_1_3)"/>
<path d="M149.593 18.8101V2.18994H151.933V18.8101H149.593Z" fill="url(#paint5_linear_1_3)"/>
<path d="M167.737 19C166.49 19 165.328 18.7863 164.252 18.3589C163.191 17.9316 162.271 17.338 161.491 16.5782C160.711 15.8026 160.103 14.9004 159.666 13.8715C159.23 12.8426 159.011 11.7188 159.011 10.5C159.011 9.28119 159.23 8.15736 159.666 7.12849C160.103 6.09963 160.711 5.20531 161.491 4.44553C162.271 3.66992 163.191 3.06843 164.252 2.64106C165.312 2.21369 166.474 2 167.737 2C168.985 2 170.131 2.21369 171.176 2.64106C172.237 3.05261 173.157 3.64618 173.937 4.42179C174.732 5.18156 175.34 6.07588 175.762 7.10475C176.198 8.13361 176.417 9.26536 176.417 10.5C176.417 11.7346 176.198 12.8664 175.762 13.8953C175.34 14.9241 174.732 15.8264 173.937 16.602C173.157 17.3617 172.237 17.9553 171.176 18.3827C170.131 18.7942 168.985 19 167.737 19ZM167.737 16.8869C168.642 16.8869 169.476 16.7286 170.24 16.412C171.02 16.0954 171.691 15.6522 172.252 15.0824C172.829 14.4967 173.274 13.8161 173.586 13.0405C173.913 12.2649 174.077 11.4181 174.077 10.5C174.077 9.58194 173.913 8.7351 173.586 7.9595C173.274 7.18389 172.829 6.51117 172.252 5.94134C171.691 5.35568 171.02 4.90456 170.24 4.58799C169.476 4.27141 168.642 4.11313 167.737 4.11313C166.817 4.11313 165.967 4.27141 165.187 4.58799C164.423 4.90456 163.752 5.35568 163.175 5.94134C162.598 6.51117 162.146 7.18389 161.818 7.9595C161.507 8.7351 161.351 9.58194 161.351 10.5C161.351 11.4181 161.507 12.2649 161.818 13.0405C162.146 13.8161 162.598 14.4967 163.175 15.0824C163.752 15.6522 164.423 16.0954 165.187 16.412C165.967 16.7286 166.817 16.8869 167.737 16.8869Z" fill="url(#paint6_linear_1_3)"/>
<path fill-rule="evenodd" clip-rule="evenodd" d="M183.501 11.7346V18.8101H185.841V13.7528H189.888C190.248 13.7528 190.595 13.7384 190.928 13.7095L194.45 18.8101H197L193.115 13.2464C193.268 13.1903 193.417 13.1296 193.561 13.0642C194.575 12.6052 195.355 11.9483 195.9 11.0936C196.446 10.223 196.719 9.18622 196.719 7.98324C196.719 6.78026 196.446 5.74348 195.9 4.8729C195.355 4.00233 194.575 3.33752 193.561 2.87849C192.547 2.41946 191.323 2.18994 189.888 2.18994H183.501V4.25559H185.841H189.818C191.315 4.25559 192.446 4.58007 193.21 5.22905C193.99 5.87803 194.38 6.79609 194.38 7.98324C194.38 9.17039 193.99 10.0964 193.21 10.7612C192.446 11.4101 191.315 11.7346 189.818 11.7346H185.841H183.501Z" fill="url(#paint7_linear_1_3)"/>
<path fill-rule="evenodd" clip-rule="evenodd" d="M81.9565 9.36033H72.7392H70.3997V11.3785H72.7392H81.9565V9.36033ZM72.7392 16.7444H70.3997V18.8101H82.284V16.7444H72.7392ZM72.7392 4.25559H81.9565V2.18994H70.3997V4.25559H72.7392Z" fill="url(#paint8_linear_1_3)"/>
<path fill-rule="evenodd" clip-rule="evenodd" d="M47.5628 10.5V18.8101H54.4641C56.2109 18.8101 57.7471 18.4618 59.0728 17.7654C60.4141 17.0689 61.4513 16.0954 62.1843 14.845C62.9329 13.5945 63.3072 12.1462 63.3072 10.5C63.3072 8.85382 62.9329 7.40549 62.1843 6.15503C61.4513 4.90456 60.4141 3.9311 59.0728 3.23464C57.7471 2.53817 56.2109 2.18994 54.4641 2.18994H47.5628V4.25559H49.9022H54.3238C55.6806 4.25559 56.8504 4.51676 57.8329 5.03911C58.8311 5.56145 59.6031 6.28957 60.149 7.22346C60.6948 8.15736 60.9678 9.24954 60.9678 10.5C60.9678 11.7346 60.6948 12.8268 60.149 13.7765C59.6031 14.7104 58.8311 15.4385 57.8329 15.9609C56.8504 16.4832 55.6806 16.7444 54.3238 16.7444H49.9022V10.5L47.5628 10.5Z" fill="url(#paint9_linear_1_3)"/>
</g>
<defs>
<filter id="filter0_d_1_3" x="-2.3" y="0.7" width="204.6" height="27.6" filterUnits="userSpaceOnUse" color-interpolation-filters="sRGB">
<feFlood flood-opacity="0" result="BackgroundImageFix"/>
<feColorMatrix in="SourceAlpha" type="matrix" values="0 0 0 0 0 0 0 0 0 0 0 0 0 0 0 0 0 0 127 0" result="hardAlpha"/>
<feOffset dy="4"/>
<feGaussianBlur stdDeviation="2.65"/>
<feComposite in2="hardAlpha" operator="out"/>
<feColorMatrix type="matrix" values="0 0 0 0 0 0 0 0 0 0 0 0 0 0 0 0 0 0 0.25 0"/>
<feBlend mode="normal" in2="BackgroundImageFix" result="effect1_dropShadow_1_3"/>
<feBlend mode="normal" in="SourceGraphic" in2="effect1_dropShadow_1_3" result="shape"/>
</filter>
<linearGradient id="paint0_linear_1_3" x1="322" y1="11" x2="-73.5002" y2="13.975" gradientUnits="userSpaceOnUse">
<stop offset="0.361" stop-color="#6CC07D"/>
<stop offset="1" stop-color="#CEF2D5"/>
</linearGradient>
<linearGradient id="paint1_linear_1_3" x1="322" y1="11" x2="-73.5002" y2="13.975" gradientUnits="userSpaceOnUse">
<stop offset="0.361" stop-color="#6CC07D"/>
<stop offset="1" stop-color="#CEF2D5"/>
</linearGradient>
<linearGradient id="paint2_linear_1_3" x1="322" y1="11" x2="-73.5002" y2="13.975" gradientUnits="userSpaceOnUse">
<stop offset="0.361" stop-color="#6CC07D"/>
<stop offset="1" stop-color="#CEF2D5"/>
</linearGradient>
<linearGradient id="paint3_linear_1_3" x1="322" y1="11" x2="-73.5002" y2="13.975" gradientUnits="userSpaceOnUse">
<stop offset="0.361" stop-color="#6CC07D"/>
<stop offset="1" stop-color="#CEF2D5"/>
</linearGradient>
<linearGradient id="paint4_linear_1_3" x1="322" y1="11" x2="-73.5002" y2="13.975" gradientUnits="userSpaceOnUse">
<stop offset="0.361" stop-color="#6CC07D"/>
<stop offset="1" stop-color="#CEF2D5"/>
</linearGradient>
<linearGradient id="paint5_linear_1_3" x1="322" y1="11" x2="-73.5002" y2="13.975" gradientUnits="userSpaceOnUse">
<stop offset="0.361" stop-color="#6CC07D"/>
<stop offset="1" stop-color="#CEF2D5"/>
</linearGradient>
<linearGradient id="paint6_linear_1_3" x1="322" y1="11" x2="-73.5002" y2="13.975" gradientUnits="userSpaceOnUse">
<stop offset="0.361" stop-color="#6CC07D"/>
<stop offset="1" stop-color="#CEF2D5"/>
</linearGradient>
<linearGradient id="paint7_linear_1_3" x1="322" y1="11" x2="-73.5002" y2="13.975" gradientUnits="userSpaceOnUse">
<stop offset="0.361" stop-color="#6CC07D"/>
<stop offset="1" stop-color="#CEF2D5"/>
</linearGradient>
<linearGradient id="paint8_linear_1_3" x1="322" y1="11" x2="-73.5002" y2="13.975" gradientUnits="userSpaceOnUse">
<stop offset="0.361" stop-color="#6CC07D"/>
<stop offset="1" stop-color="#CEF2D5"/>
</linearGradient>
<linearGradient id="paint9_linear_1_3" x1="322" y1="11" x2="-73.5002" y2="13.975" gradientUnits="userSpaceOnUse">
<stop offset="0.361" stop-color="#6CC07D"/>
<stop offset="1" stop-color="#CEF2D5"/>
</linearGradient>
</defs>
</svg>
